<svg width="326" height="81" viewBox="0 0 326 81" fill="none" xmlns="http://www.w3.org/2000/svg">
<path d="M224.312 67.5312H224.688V54.5625C224.688 54.2292 224.708 53.9167 224.75 53.625C224.792 53.3229 224.88 53.0625 225.016 52.8438C225.161 52.625 225.37 52.4531 225.641 52.3281C225.922 52.1927 226.302 52.125 226.781 52.125C227.312 52.125 227.729 52.1927 228.031 52.3281C228.344 52.4531 228.578 52.625 228.734 52.8438C228.891 53.0625 228.99 53.3229 229.031 53.625C229.073 53.9167 229.094 54.2292 229.094 54.5625V70.4062C229.094 70.8646 229.078 71.3073 229.047 71.7344C229.026 72.1615 228.943 72.5469 228.797 72.8906C228.661 73.224 228.432 73.4948 228.109 73.7031C227.797 73.901 227.354 74 226.781 74H224.719C224.229 74 223.818 73.9062 223.484 73.7188C223.161 73.5208 222.891 73.2865 222.672 73.0156C222.453 72.7344 222.276 72.4427 222.141 72.1406C222.016 71.8385 221.917 71.5833 221.844 71.375L217.125 58.5938H216.75V71.5625C216.75 71.8958 216.729 72.2135 216.688 72.5156C216.646 72.8073 216.552 73.0625 216.406 73.2812C216.271 73.5 216.062 73.6771 215.781 73.8125C215.51 73.9375 215.135 74 214.656 74C214.115 74 213.688 73.9375 213.375 73.8125C213.062 73.6771 212.828 73.5 212.672 73.2812C212.516 73.0625 212.417 72.8073 212.375 72.5156C212.333 72.2135 212.312 71.8958 212.312 71.5625V55.7188C212.312 55.2708 212.323 54.8333 212.344 54.4062C212.375 53.9688 212.464 53.5833 212.609 53.25C212.755 52.9062 212.984 52.6354 213.297 52.4375C213.62 52.2292 214.073 52.125 214.656 52.125H216.719C217.24 52.125 217.661 52.2292 217.984 52.4375C218.318 52.6354 218.589 52.8542 218.797 53.0938C219.026 53.375 219.208 53.6979 219.344 54.0625L224.312 67.5312ZM245.5 70.4688C245.5 70.9062 245.484 71.3385 245.453 71.7656C245.422 72.1823 245.328 72.5573 245.172 72.8906C245.016 73.224 244.781 73.4948 244.469 73.7031C244.156 73.901 243.719 74 243.156 74C242.583 74 242.135 73.9062 241.812 73.7188C241.49 73.5208 241.25 73.2865 241.094 73.0156C240.938 72.7344 240.839 72.4427 240.797 72.1406C240.766 71.8385 240.75 71.5833 240.75 71.375C240.656 71.6771 240.521 71.9844 240.344 72.2969C240.177 72.6094 239.958 72.8906 239.688 73.1406C239.417 73.3906 239.089 73.599 238.703 73.7656C238.328 73.9219 237.885 74 237.375 74C236.802 74 236.229 73.9062 235.656 73.7188C235.083 73.5312 234.568 73.2188 234.109 72.7812C233.651 72.3438 233.276 71.776 232.984 71.0781C232.703 70.3698 232.562 69.5 232.562 68.4688V63.9375C232.562 62.8958 232.703 62.026 232.984 61.3281C233.276 60.6198 233.651 60.0521 234.109 59.625C234.568 59.1875 235.083 58.875 235.656 58.6875C236.229 58.5 236.802 58.4062 237.375 58.4062C237.885 58.4062 238.328 58.4844 238.703 58.6406C239.089 58.7969 239.417 59 239.688 59.25C239.958 59.5 240.177 59.7812 240.344 60.0938C240.521 60.4062 240.656 60.7188 240.75 61.0312C240.75 60.5104 240.823 60.0781 240.969 59.7344C241.115 59.3906 241.302 59.1198 241.531 58.9219C241.76 58.7135 242.016 58.5729 242.297 58.5C242.589 58.4167 242.875 58.375 243.156 58.375C243.677 58.375 244.094 58.4792 244.406 58.6875C244.719 58.8854 244.953 59.151 245.109 59.4844C245.276 59.8073 245.38 60.1875 245.422 60.625C245.474 61.0521 245.5 61.4896 245.5 61.9375V70.4688ZM237.375 68.0625C237.375 68.3438 237.385 68.6198 237.406 68.8906C237.427 69.1615 237.484 69.4062 237.578 69.625C237.672 69.8438 237.807 70.0208 237.984 70.1562C238.172 70.2812 238.427 70.3438 238.75 70.3438C239.156 70.3438 239.484 70.2552 239.734 70.0781C239.995 69.8906 240.198 69.6094 240.344 69.2344C240.49 68.849 240.589 68.3698 240.641 67.7969C240.703 67.2135 240.74 66.5208 240.75 65.7188C240.75 65.3958 240.719 65.026 240.656 64.6094C240.604 64.1823 240.505 63.7812 240.359 63.4062C240.214 63.0312 240.01 62.7135 239.75 62.4531C239.49 62.1927 239.156 62.0625 238.75 62.0625C238.427 62.0625 238.172 62.1302 237.984 62.2656C237.807 62.3906 237.672 62.5573 237.578 62.7656C237.484 62.974 237.427 63.2135 237.406 63.4844C237.385 63.7448 237.375 64.0104 237.375 64.2812V68.0625ZM249.531 55.5938C249.531 55.1562 249.547 54.7292 249.578 54.3125C249.609 53.8958 249.698 53.526 249.844 53.2031C249.99 52.8802 250.208 52.6198 250.5 52.4219C250.802 52.224 251.219 52.125 251.75 52.125C252.292 52.125 252.708 52.224 253 52.4219C253.302 52.6198 253.521 52.8802 253.656 53.2031C253.802 53.526 253.891 53.8958 253.922 54.3125C253.953 54.7292 253.969 55.1562 253.969 55.5938V61.75H254.219L257.438 57.9688C257.625 57.75 257.844 57.5938 258.094 57.5C258.344 57.3958 258.604 57.3438 258.875 57.3438C259.135 57.3438 259.396 57.3958 259.656 57.5C259.927 57.5938 260.161 57.7344 260.359 57.9219C260.568 58.099 260.734 58.3177 260.859 58.5781C260.995 58.8281 261.062 59.1146 261.062 59.4375C261.062 59.8542 260.917 60.2396 260.625 60.5938L257.812 63.9062L260.875 69.75C261.062 70.125 261.224 70.5052 261.359 70.8906C261.495 71.2656 261.562 71.625 261.562 71.9688C261.562 72.3021 261.49 72.599 261.344 72.8594C261.198 73.1198 261.005 73.3385 260.766 73.5156C260.536 73.6823 260.276 73.8125 259.984 73.9062C259.703 73.9896 259.427 74.0312 259.156 74.0312C258.812 74.0312 258.505 73.9479 258.234 73.7812C257.964 73.6146 257.724 73.4115 257.516 73.1719C257.318 72.9219 257.141 72.6562 256.984 72.375C256.828 72.0938 256.698 71.8333 256.594 71.5938L254.844 67.875H253.969V70.5C253.969 70.9375 253.953 71.3698 253.922 71.7969C253.891 72.2135 253.802 72.5885 253.656 72.9219C253.521 73.2448 253.302 73.5052 253 73.7031C252.708 73.901 252.292 74 251.75 74C251.219 74 250.802 73.901 250.5 73.7031C250.208 73.5052 249.99 73.2448 249.844 72.9219C249.698 72.5885 249.609 72.2135 249.578 71.7969C249.547 71.3698 249.531 70.9375 249.531 70.5V55.5938ZM265.219 55.5938C265.219 55.1562 265.24 54.7292 265.281 54.3125C265.333 53.8958 265.443 53.526 265.609 53.2031C265.776 52.8802 266.016 52.6198 266.328 52.4219C266.641 52.224 267.062 52.125 267.594 52.125C268.135 52.125 268.562 52.224 268.875 52.4219C269.188 52.6198 269.422 52.8802 269.578 53.2031C269.745 53.526 269.849 53.8958 269.891 54.3125C269.943 54.7292 269.969 55.1562 269.969 55.5938V70.5C269.969 70.9375 269.943 71.3698 269.891 71.7969C269.849 72.2135 269.745 72.5885 269.578 72.9219C269.422 73.2448 269.188 73.5052 268.875 73.7031C268.562 73.901 268.135 74 267.594 74C267.062 74 266.641 73.901 266.328 73.7031C266.016 73.5052 265.776 73.2448 265.609 72.9219C265.443 72.5885 265.333 72.2135 265.281 71.7969C265.24 71.3698 265.219 70.9375 265.219 70.5V55.5938ZM274.594 61.875C274.594 61.4375 274.615 61.0104 274.656 60.5938C274.708 60.1771 274.818 59.8073 274.984 59.4844C275.151 59.151 275.391 58.8854 275.703 58.6875C276.016 58.4792 276.438 58.375 276.969 58.375C277.5 58.375 277.922 58.4792 278.234 58.6875C278.547 58.8854 278.786 59.151 278.953 59.4844C279.12 59.8073 279.224 60.1771 279.266 60.5938C279.318 61.0104 279.344 61.4375 279.344 61.875V70.5C279.344 70.9375 279.318 71.3698 279.266 71.7969C279.224 72.2135 279.12 72.5885 278.953 72.9219C278.786 73.2448 278.547 73.5052 278.234 73.7031C277.922 73.901 277.5 74 276.969 74C276.438 74 276.016 73.901 275.703 73.7031C275.391 73.5052 275.151 73.2448 274.984 72.9219C274.818 72.5885 274.708 72.2135 274.656 71.7969C274.615 71.3698 274.594 70.9375 274.594 70.5V61.875ZM279.375 54.5C279.375 55.3021 279.167 55.901 278.75 56.2969C278.333 56.6823 277.75 56.875 277 56.875C276.25 56.875 275.667 56.6823 275.25 56.2969C274.833 55.901 274.625 55.3021 274.625 54.5C274.625 53.6667 274.833 53.0625 275.25 52.6875C275.667 52.3125 276.25 52.125 277 52.125C277.802 52.125 278.396 52.3125 278.781 52.6875C279.177 53.0625 279.375 53.6667 279.375 54.5ZM285.562 80.25C284.375 80.25 283.531 80.0781 283.031 79.7344C282.531 79.401 282.281 78.9062 282.281 78.25C282.281 77.9271 282.323 77.6562 282.406 77.4375C282.5 77.2188 282.625 77.0417 282.781 76.9062C282.938 76.7708 283.115 76.6719 283.312 76.6094C283.521 76.5573 283.74 76.5312 283.969 76.5312C284.125 76.5312 284.271 76.5365 284.406 76.5469C284.542 76.5573 284.656 76.5625 284.75 76.5625C284.948 76.5625 285.135 76.4427 285.312 76.2031C285.5 75.974 285.677 75.6823 285.844 75.3281C286.021 74.974 286.198 74.5938 286.375 74.1875C286.552 73.7812 286.729 73.4062 286.906 73.0625L286.656 72.4375C286.354 71.6771 286.036 70.8802 285.703 70.0469C285.37 69.2031 285.036 68.3542 284.703 67.5C284.38 66.6354 284.057 65.776 283.734 64.9219C283.422 64.0677 283.135 63.2396 282.875 62.4375C282.76 62.1042 282.661 61.776 282.578 61.4531C282.505 61.1302 282.469 60.8125 282.469 60.5C282.469 60.1979 282.531 59.9167 282.656 59.6562C282.781 59.3958 282.953 59.1719 283.172 58.9844C283.391 58.7969 283.641 58.651 283.922 58.5469C284.214 58.4323 284.521 58.375 284.844 58.375C285.135 58.375 285.401 58.4375 285.641 58.5625C285.891 58.6875 286.109 58.8594 286.297 59.0781C286.495 59.2969 286.667 59.5469 286.812 59.8281C286.958 60.1094 287.083 60.4062 287.188 60.7188L289.281 67.3125L291.281 60.7188C291.375 60.4271 291.495 60.1354 291.641 59.8438C291.786 59.5521 291.958 59.2969 292.156 59.0781C292.354 58.849 292.578 58.6667 292.828 58.5312C293.078 58.3854 293.354 58.3125 293.656 58.3125C293.958 58.3125 294.245 58.3698 294.516 58.4844C294.797 58.599 295.036 58.7604 295.234 58.9688C295.443 59.1667 295.604 59.4062 295.719 59.6875C295.844 59.9688 295.906 60.2708 295.906 60.5938C295.906 60.9062 295.865 61.2188 295.781 61.5312C295.708 61.8333 295.615 62.1354 295.5 62.4375L291.75 72.375C291.531 72.9375 291.292 73.5208 291.031 74.125C290.781 74.7396 290.505 75.3385 290.203 75.9219C289.901 76.5052 289.578 77.0573 289.234 77.5781C288.891 78.099 288.526 78.5573 288.141 78.9531C287.755 79.349 287.344 79.6615 286.906 79.8906C286.479 80.1302 286.031 80.25 285.562 80.25ZM310.531 70.4688C310.531 70.9062 310.516 71.3385 310.484 71.7656C310.453 72.1823 310.359 72.5573 310.203 72.8906C310.047 73.224 309.812 73.4948 309.5 73.7031C309.188 73.901 308.75 74 308.188 74C307.615 74 307.167 73.9062 306.844 73.7188C306.521 73.5208 306.281 73.2865 306.125 73.0156C305.969 72.7344 305.87 72.4427 305.828 72.1406C305.797 71.8385 305.781 71.5833 305.781 71.375C305.688 71.6771 305.552 71.9844 305.375 72.2969C305.208 72.6094 304.99 72.8906 304.719 73.1406C304.448 73.3906 304.12 73.599 303.734 73.7656C303.359 73.9219 302.917 74 302.406 74C301.833 74 301.26 73.9062 300.688 73.7188C300.115 73.5312 299.599 73.2188 299.141 72.7812C298.682 72.3438 298.307 71.776 298.016 71.0781C297.734 70.3698 297.594 69.5 297.594 68.4688V63.9375C297.594 62.8958 297.734 62.026 298.016 61.3281C298.307 60.6198 298.682 60.0521 299.141 59.625C299.599 59.1875 300.115 58.875 300.688 58.6875C301.26 58.5 301.833 58.4062 302.406 58.4062C302.917 58.4062 303.359 58.4844 303.734 58.6406C304.12 58.7969 304.448 59 304.719 59.25C304.99 59.5 305.208 59.7812 305.375 60.0938C305.552 60.4062 305.688 60.7188 305.781 61.0312C305.781 60.5104 305.854 60.0781 306 59.7344C306.146 59.3906 306.333 59.1198 306.562 58.9219C306.792 58.7135 307.047 58.5729 307.328 58.5C307.62 58.4167 307.906 58.375 308.188 58.375C308.708 58.375 309.125 58.4792 309.438 58.6875C309.75 58.8854 309.984 59.151 310.141 59.4844C310.307 59.8073 310.411 60.1875 310.453 60.625C310.505 61.0521 310.531 61.4896 310.531 61.9375V70.4688ZM302.406 68.0625C302.406 68.3438 302.417 68.6198 302.438 68.8906C302.458 69.1615 302.516 69.4062 302.609 69.625C302.703 69.8438 302.839 70.0208 303.016 70.1562C303.203 70.2812 303.458 70.3438 303.781 70.3438C304.188 70.3438 304.516 70.2552 304.766 70.0781C305.026 69.8906 305.229 69.6094 305.375 69.2344C305.521 68.849 305.62 68.3698 305.672 67.7969C305.734 67.2135 305.771 66.5208 305.781 65.7188C305.781 65.3958 305.75 65.026 305.688 64.6094C305.635 64.1823 305.536 63.7812 305.391 63.4062C305.245 63.0312 305.042 62.7135 304.781 62.4531C304.521 62.1927 304.188 62.0625 303.781 62.0625C303.458 62.0625 303.203 62.1302 303.016 62.2656C302.839 62.3906 302.703 62.5573 302.609 62.7656C302.516 62.974 302.458 63.2135 302.438 63.4844C302.417 63.7448 302.406 64.0104 302.406 64.2812V68.0625ZM316.25 58.375V55.625C316.25 55.1875 316.271 54.7604 316.312 54.3438C316.365 53.9271 316.474 53.5573 316.641 53.2344C316.807 52.901 317.047 52.6354 317.359 52.4375C317.672 52.2292 318.094 52.125 318.625 52.125C319.146 52.125 319.562 52.2292 319.875 52.4375C320.188 52.6354 320.422 52.901 320.578 53.2344C320.745 53.5573 320.849 53.9271 320.891 54.3438C320.943 54.7604 320.969 55.1875 320.969 55.625V58.375H322.25C322.521 58.375 322.792 58.3906 323.062 58.4219C323.333 58.4427 323.573 58.5156 323.781 58.6406C324 58.7656 324.172 58.9531 324.297 59.2031C324.432 59.4531 324.5 59.8021 324.5 60.25C324.5 60.6771 324.432 61.0156 324.297 61.2656C324.172 61.5156 324 61.7031 323.781 61.8281C323.573 61.9531 323.333 62.0365 323.062 62.0781C322.792 62.1094 322.521 62.125 322.25 62.125H320.969V67.5938C320.969 67.8021 320.974 68.026 320.984 68.2656C321.005 68.4948 321.062 68.7083 321.156 68.9062C321.25 69.1042 321.391 69.2708 321.578 69.4062C321.766 69.5312 322.031 69.5938 322.375 69.5938C322.75 69.5938 323.068 69.625 323.328 69.6875C323.599 69.7396 323.818 69.8385 323.984 69.9844C324.161 70.1302 324.292 70.3333 324.375 70.5938C324.458 70.8542 324.5 71.1875 324.5 71.5938C324.5 72.0104 324.401 72.3698 324.203 72.6719C324.016 72.974 323.76 73.224 323.438 73.4219C323.115 73.6198 322.74 73.7656 322.312 73.8594C321.885 73.9531 321.438 74 320.969 74C320.229 74 319.594 73.9219 319.062 73.7656C318.542 73.6094 318.104 73.3906 317.75 73.1094C317.406 72.8177 317.13 72.474 316.922 72.0781C316.724 71.6719 316.573 71.2188 316.469 70.7188C316.375 70.2188 316.312 69.6823 316.281 69.1094C316.26 68.526 316.25 67.9167 316.25 67.2812V62.125H315.375C315.104 62.125 314.833 62.1094 314.562 62.0781C314.302 62.0365 314.068 61.9531 313.859 61.8281C313.651 61.7031 313.479 61.5156 313.344 61.2656C313.219 61.0156 313.156 60.6771 313.156 60.25C313.156 59.8021 313.219 59.4531 313.344 59.2031C313.479 58.9531 313.651 58.7656 313.859 58.6406C314.068 58.5156 314.302 58.4427 314.562 58.4219C314.833 58.3906 315.104 58.375 315.375 58.375H316.25Z" fill="#D62839"/>
<rect x="158.703" y="7.66953" width="12.0541" height="15.2804" fill="#175676"/>
<rect width="112.057" height="9.58872" rx="4" transform="matrix(-0.96161 -0.274418 -0.263663 0.964615 210 30.7505)" fill="#D62839"/>
<path d="M1.05465 34.609C0.472184 32.478 1.72211 30.2591 3.84644 29.6529L103.909 1.09767C106.033 0.491441 108.228 1.72749 108.81 3.85846L109.229 5.39095C109.811 7.52192 108.562 9.74086 106.437 10.3471L6.37463 38.9023C4.2503 39.5085 2.05601 38.2725 1.47354 36.1415L1.05465 34.609Z" fill="#D62839"/>
<path d="M37.9766 25.7812C38.9141 25.7812 39.8633 25.8164 40.8242 25.8867C41.7852 25.957 42.6523 26.1563 43.4258 26.4844C44.1992 26.8125 44.832 27.3164 45.3242 27.9961C45.8164 28.6523 46.0625 29.5781 46.0625 30.7734C46.0625 31.9688 45.8164 32.9062 45.3242 33.5859C44.832 34.2422 44.1992 34.7344 43.4258 35.0625C42.6523 35.3906 41.7852 35.5898 40.8242 35.6602C39.8633 35.7305 38.9141 35.7656 37.9766 35.7656H29.6094V45.3281H34.0391C34.9766 45.3281 35.9141 45.3633 36.8516 45.4336C37.8125 45.4805 38.6562 45.668 39.3828 45.9961C40.1328 46.3008 40.7422 46.7812 41.2109 47.4375C41.6797 48.0703 41.9141 48.9609 41.9141 50.1094C41.9141 51.2812 41.6797 52.1836 41.2109 52.8164C40.7422 53.4492 40.1328 53.9297 39.3828 54.2578C38.6562 54.5625 37.8125 54.75 36.8516 54.8203C35.9141 54.8672 34.9766 54.8906 34.0391 54.8906H29.6094V65.0156H37.9766C38.9141 65.0156 39.8633 65.0508 40.8242 65.1211C41.7852 65.1914 42.6523 65.3906 43.4258 65.7188C44.1992 66.0234 44.832 66.5156 45.3242 67.1953C45.8164 67.8516 46.0625 68.7656 46.0625 69.9375C46.0625 71.1562 45.8047 72.1055 45.2891 72.7852C44.7969 73.4648 44.1641 73.9688 43.3906 74.2969C42.6172 74.625 41.75 74.8242 40.7891 74.8945C39.8281 74.9648 38.8906 75 37.9766 75H24.1953C22.8828 75 21.8633 74.7656 21.1367 74.2969C20.4336 73.8281 19.918 73.2188 19.5898 72.4688C19.2617 71.6953 19.0625 70.8281 18.9922 69.8672C18.9453 68.9062 18.9219 67.9219 18.9219 66.9141V33.8672C18.9219 32.8594 18.9453 31.875 18.9922 30.9141C19.0625 29.9531 19.2617 29.0977 19.5898 28.3477C19.918 27.5742 20.4336 26.9531 21.1367 26.4844C21.8633 26.0156 22.8828 25.7812 24.1953 25.7812H37.9766ZM78.3359 25.7812C79.0156 25.7812 79.6719 25.8984 80.3047 26.1328C80.9375 26.3672 81.4883 26.6836 81.957 27.082C82.4492 27.4805 82.8359 27.9609 83.1172 28.5234C83.3984 29.0625 83.5391 29.6484 83.5391 30.2812C83.5391 30.5859 83.5156 30.8789 83.4688 31.1602C83.4453 31.418 83.4102 31.6523 83.3633 31.8633C83.293 32.1211 83.2344 32.3438 83.1875 32.5312C81.5938 38.7891 79.9297 45.1758 78.1953 51.6914C76.4609 58.1836 74.7969 64.5469 73.2031 70.7812C72.8516 71.5781 72.3828 72.2812 71.7969 72.8906C71.3047 73.4297 70.6602 73.9219 69.8633 74.3672C69.0898 74.7891 68.1172 75 66.9453 75H65.8203C64.6484 75 63.6641 74.7891 62.8672 74.3672C62.0703 73.9219 61.4258 73.4297 60.9336 72.8906C60.3477 72.2812 59.8906 71.5781 59.5625 70.7812L49.5781 32.5312C49.5078 32.3438 49.4492 32.1211 49.4023 31.8633C49.2852 31.3945 49.2266 30.8672 49.2266 30.2812C49.2266 29.6484 49.3555 29.0625 49.6133 28.5234C49.8945 27.9609 50.2695 27.4805 50.7383 27.082C51.207 26.6836 51.7578 26.3672 52.3906 26.1328C53.0234 25.8984 53.7031 25.7812 54.4297 25.7812C55.5547 25.7812 56.457 26.0273 57.1367 26.5195C57.8398 27.0117 58.3906 27.5625 58.7891 28.1719C59.2344 28.875 59.5625 29.6719 59.7734 30.5625C60.0547 31.6875 60.3594 32.9648 60.6875 34.3945C61.0156 35.8008 61.3438 37.2656 61.6719 38.7891C62 40.3125 62.3281 41.8711 62.6562 43.4648C63.0078 45.0352 63.3359 46.5586 63.6406 48.0352C64.3672 51.5039 65.0938 55.0547 65.8203 58.6875H66.9453C67.7422 55.0547 68.5156 51.5039 69.2656 48.0352C69.5703 46.5586 69.8867 45.0352 70.2148 43.4648C70.5664 41.8711 70.9062 40.3125 71.2344 38.7891C71.5625 37.2656 71.8789 35.8008 72.1836 34.3945C72.4883 32.9648 72.7578 31.6875 72.9922 30.5625C73.2266 29.6719 73.5664 28.875 74.0117 28.1719C74.4102 27.5625 74.9492 27.0117 75.6289 26.5195C76.3086 26.0273 77.2109 25.7812 78.3359 25.7812ZM106.812 67.0547C106.812 68.0391 106.766 69.0117 106.672 69.9727C106.578 70.9102 106.355 71.7539 106.004 72.5039C105.652 73.2539 105.125 73.8633 104.422 74.332C103.719 74.7773 102.758 75 101.539 75C100.297 75 99.3242 74.7773 98.6211 74.332C97.918 73.8633 97.3789 73.2539 97.0039 72.5039C96.6523 71.7539 96.4297 70.9102 96.3359 69.9727C96.2422 69.0117 96.1953 68.0391 96.1953 67.0547V54.8203L85.7188 36.1172C85.1562 35.1328 84.6172 34.1719 84.1016 33.2344C83.5859 32.2734 83.3281 31.3125 83.3281 30.3516C83.3281 29.7188 83.5039 29.0859 83.8555 28.4531C84.2305 27.7969 84.8984 27.1875 85.8594 26.625C86.9141 26.0625 87.8984 25.7812 88.8125 25.7812C89.5156 25.7812 90.1484 25.9453 90.7109 26.2734C91.2969 26.5781 91.8242 26.9883 92.293 27.5039C92.7617 28.0195 93.1836 28.6055 93.5586 29.2617C93.9336 29.8945 94.2734 30.5391 94.5781 31.1953L100.977 44.625H102.102L108.5 31.1953C108.805 30.5391 109.145 29.8945 109.52 29.2617C109.895 28.6055 110.316 28.0195 110.785 27.5039C111.254 26.9883 111.77 26.5781 112.332 26.2734C112.918 25.9453 113.562 25.7812 114.266 25.7812C114.758 25.7812 115.238 25.8516 115.707 25.9922C116.176 26.1328 116.68 26.3438 117.219 26.625C118.133 27.1875 118.777 27.7969 119.152 28.4531C119.551 29.0859 119.75 29.7188 119.75 30.3516C119.75 30.7734 119.562 31.4648 119.188 32.4258C118.812 33.3633 118.203 34.5938 117.359 36.1172L106.812 54.8203V67.0547ZM132.828 53.7656H144.008L138.805 34.9219H138.031L132.828 53.7656ZM154.906 57.2109C154.953 58.8047 155.012 60.4336 155.082 62.0977C155.152 63.7617 155.188 65.3672 155.188 66.9141V67.9688C155.188 68.8594 155.152 69.7266 155.082 70.5703C155.035 71.3906 154.859 72.1406 154.555 72.8203C154.25 73.4766 153.77 74.0039 153.113 74.4023C152.457 74.8008 151.531 75 150.336 75C149.117 75 148.18 74.8008 147.523 74.4023C146.867 74.0039 146.375 73.4766 146.047 72.8203C145.742 72.1641 145.555 71.4141 145.484 70.5703C145.438 69.7266 145.414 68.8594 145.414 67.9688V63.0469H131.352V67.9688C131.352 68.8594 131.316 69.7266 131.246 70.5703C131.199 71.4141 131.012 72.1641 130.684 72.8203C130.379 73.4766 129.898 74.0039 129.242 74.4023C128.586 74.8008 127.648 75 126.43 75C125.211 75 124.273 74.8008 123.617 74.4023C122.961 74.0039 122.48 73.4766 122.176 72.8203C121.871 72.1406 121.695 71.3906 121.648 70.5703C121.602 69.7266 121.578 68.8594 121.578 67.9688V66.9141C121.578 66.1875 121.578 65.4141 121.578 64.5938C121.602 63.7734 121.625 62.9414 121.648 62.0977C121.672 61.2539 121.695 60.4219 121.719 59.6016C121.742 58.7578 121.766 57.9609 121.789 57.2109C122.961 53.1328 124.191 49.0078 125.48 44.8359C126.77 40.6406 128 36.4922 129.172 32.3906C129.406 31.5234 129.688 30.6914 130.016 29.8945C130.344 29.0742 130.777 28.3711 131.316 27.7852C131.855 27.1758 132.547 26.6953 133.391 26.3438C134.234 25.9687 135.312 25.7812 136.625 25.7812H140.141C141.43 25.7812 142.496 25.9687 143.34 26.3438C144.207 26.6953 144.91 27.1758 145.449 27.7852C145.988 28.3711 146.41 29.0742 146.715 29.8945C147.043 30.6914 147.336 31.5234 147.594 32.3906L154.906 57.2109ZM173.469 55.5938V66.9844C173.469 67.9922 173.434 68.9766 173.363 69.9375C173.316 70.8984 173.117 71.7539 172.766 72.5039C172.438 73.2539 171.91 73.8633 171.184 74.332C170.457 74.7773 169.414 75 168.055 75C166.742 75 165.723 74.7773 164.996 74.332C164.293 73.8633 163.777 73.2539 163.449 72.5039C163.121 71.7539 162.922 70.8984 162.852 69.9375C162.805 68.9766 162.781 67.9922 162.781 66.9844V33.7969C162.781 32.7891 162.805 31.8047 162.852 30.8438C162.922 29.8828 163.121 29.0273 163.449 28.2773C163.777 27.5273 164.293 26.9297 164.996 26.4844C165.723 26.0156 166.742 25.7812 168.055 25.7812H179.656C182.562 25.9219 185.164 26.5312 187.461 27.6094C188.445 28.0781 189.395 28.6641 190.309 29.3672C191.246 30.0703 192.078 30.9375 192.805 31.9688C193.555 32.9766 194.152 34.1836 194.598 35.5898C195.043 36.9727 195.266 38.5781 195.266 40.4062C195.266 42.9141 194.867 45.1172 194.07 47.0156C193.297 48.8906 192.16 50.4727 190.66 51.7617C189.184 53.0273 187.367 53.9883 185.211 54.6445C183.078 55.2773 180.664 55.5938 177.969 55.5938H173.469ZM178.25 47.2266C179.422 47.1562 180.477 46.875 181.414 46.3828C181.812 46.1719 182.199 45.9023 182.574 45.5742C182.949 45.2461 183.289 44.8477 183.594 44.3789C183.898 43.8867 184.133 43.3125 184.297 42.6562C184.484 42 184.578 41.25 184.578 40.4062C184.578 39.6094 184.484 38.918 184.297 38.332C184.133 37.7227 183.91 37.207 183.629 36.7852C183.348 36.3398 183.031 35.9648 182.68 35.6602C182.328 35.3555 181.965 35.0977 181.59 34.8867C180.699 34.4414 179.703 34.1719 178.602 34.0781H173.469V47.2266H178.25Z" fill="#175676"/>
</svg>
