<svg width="210" height="76" viewBox="0 0 210 76" fill="none" xmlns="http://www.w3.org/2000/svg">
<rect x="158.703" y="7.66952" width="12.0541" height="15.2804" fill="#175676"/>
<rect width="112.057" height="9.58872" rx="4" transform="matrix(-0.96161 -0.274418 -0.263663 0.964615 210 30.7506)" fill="#D62839"/>
<path d="M1.05465 34.609C0.472184 32.478 1.72211 30.2591 3.84644 29.6529L103.909 1.09767C106.033 0.491441 108.228 1.72749 108.81 3.85846L109.229 5.39095C109.811 7.52192 108.562 9.74086 106.437 10.3471L6.37463 38.9023C4.2503 39.5085 2.05601 38.2725 1.47354 36.1415L1.05465 34.609Z" fill="#D62839"/>
<path d="M37.9766 25.7812C38.9141 25.7812 39.8633 25.8164 40.8242 25.8867C41.7852 25.957 42.6523 26.1563 43.4258 26.4844C44.1992 26.8125 44.832 27.3164 45.3242 27.9961C45.8164 28.6523 46.0625 29.5781 46.0625 30.7734C46.0625 31.9688 45.8164 32.9062 45.3242 33.5859C44.832 34.2422 44.1992 34.7344 43.4258 35.0625C42.6523 35.3906 41.7852 35.5898 40.8242 35.6602C39.8633 35.7305 38.9141 35.7656 37.9766 35.7656H29.6094V45.3281H34.0391C34.9766 45.3281 35.9141 45.3633 36.8516 45.4336C37.8125 45.4805 38.6562 45.668 39.3828 45.9961C40.1328 46.3008 40.7422 46.7812 41.2109 47.4375C41.6797 48.0703 41.9141 48.9609 41.9141 50.1094C41.9141 51.2812 41.6797 52.1836 41.2109 52.8164C40.7422 53.4492 40.1328 53.9297 39.3828 54.2578C38.6562 54.5625 37.8125 54.75 36.8516 54.8203C35.9141 54.8672 34.9766 54.8906 34.0391 54.8906H29.6094V65.0156H37.9766C38.9141 65.0156 39.8633 65.0508 40.8242 65.1211C41.7852 65.1914 42.6523 65.3906 43.4258 65.7188C44.1992 66.0234 44.832 66.5156 45.3242 67.1953C45.8164 67.8516 46.0625 68.7656 46.0625 69.9375C46.0625 71.1562 45.8047 72.1055 45.2891 72.7852C44.7969 73.4648 44.1641 73.9688 43.3906 74.2969C42.6172 74.625 41.75 74.8242 40.7891 74.8945C39.8281 74.9648 38.8906 75 37.9766 75H24.1953C22.8828 75 21.8633 74.7656 21.1367 74.2969C20.4336 73.8281 19.918 73.2188 19.5898 72.4688C19.2617 71.6953 19.0625 70.8281 18.9922 69.8672C18.9453 68.9062 18.9219 67.9219 18.9219 66.9141V33.8672C18.9219 32.8594 18.9453 31.875 18.9922 30.9141C19.0625 29.9531 19.2617 29.0977 19.5898 28.3477C19.918 27.5742 20.4336 26.9531 21.1367 26.4844C21.8633 26.0156 22.8828 25.7812 24.1953 25.7812H37.9766ZM78.3359 25.7812C79.0156 25.7812 79.6719 25.8984 80.3047 26.1328C80.9375 26.3672 81.4883 26.6836 81.957 27.082C82.4492 27.4805 82.8359 27.9609 83.1172 28.5234C83.3984 29.0625 83.5391 29.6484 83.5391 30.2812C83.5391 30.5859 83.5156 30.8789 83.4688 31.1602C83.4453 31.418 83.4102 31.6523 83.3633 31.8633C83.293 32.1211 83.2344 32.3438 83.1875 32.5312C81.5938 38.7891 79.9297 45.1758 78.1953 51.6914C76.4609 58.1836 74.7969 64.5469 73.2031 70.7812C72.8516 71.5781 72.3828 72.2812 71.7969 72.8906C71.3047 73.4297 70.6602 73.9219 69.8633 74.3672C69.0898 74.7891 68.1172 75 66.9453 75H65.8203C64.6484 75 63.6641 74.7891 62.8672 74.3672C62.0703 73.9219 61.4258 73.4297 60.9336 72.8906C60.3477 72.2812 59.8906 71.5781 59.5625 70.7812L49.5781 32.5312C49.5078 32.3438 49.4492 32.1211 49.4023 31.8633C49.2852 31.3945 49.2266 30.8672 49.2266 30.2812C49.2266 29.6484 49.3555 29.0625 49.6133 28.5234C49.8945 27.9609 50.2695 27.4805 50.7383 27.082C51.207 26.6836 51.7578 26.3672 52.3906 26.1328C53.0234 25.8984 53.7031 25.7812 54.4297 25.7812C55.5547 25.7812 56.457 26.0273 57.1367 26.5195C57.8398 27.0117 58.3906 27.5625 58.7891 28.1719C59.2344 28.875 59.5625 29.6719 59.7734 30.5625C60.0547 31.6875 60.3594 32.9648 60.6875 34.3945C61.0156 35.8008 61.3438 37.2656 61.6719 38.7891C62 40.3125 62.3281 41.8711 62.6562 43.4648C63.0078 45.0352 63.3359 46.5586 63.6406 48.0352C64.3672 51.5039 65.0938 55.0547 65.8203 58.6875H66.9453C67.7422 55.0547 68.5156 51.5039 69.2656 48.0352C69.5703 46.5586 69.8867 45.0352 70.2148 43.4648C70.5664 41.8711 70.9062 40.3125 71.2344 38.7891C71.5625 37.2656 71.8789 35.8008 72.1836 34.3945C72.4883 32.9648 72.7578 31.6875 72.9922 30.5625C73.2266 29.6719 73.5664 28.875 74.0117 28.1719C74.4102 27.5625 74.9492 27.0117 75.6289 26.5195C76.3086 26.0273 77.2109 25.7812 78.3359 25.7812ZM106.812 67.0547C106.812 68.0391 106.766 69.0117 106.672 69.9727C106.578 70.9102 106.355 71.7539 106.004 72.5039C105.652 73.2539 105.125 73.8633 104.422 74.332C103.719 74.7773 102.758 75 101.539 75C100.297 75 99.3242 74.7773 98.6211 74.332C97.918 73.8633 97.3789 73.2539 97.0039 72.5039C96.6523 71.7539 96.4297 70.9102 96.3359 69.9727C96.2422 69.0117 96.1953 68.0391 96.1953 67.0547V54.8203L85.7188 36.1172C85.1562 35.1328 84.6172 34.1719 84.1016 33.2344C83.5859 32.2734 83.3281 31.3125 83.3281 30.3516C83.3281 29.7188 83.5039 29.0859 83.8555 28.4531C84.2305 27.7969 84.8984 27.1875 85.8594 26.625C86.9141 26.0625 87.8984 25.7812 88.8125 25.7812C89.5156 25.7812 90.1484 25.9453 90.7109 26.2734C91.2969 26.5781 91.8242 26.9883 92.293 27.5039C92.7617 28.0195 93.1836 28.6055 93.5586 29.2617C93.9336 29.8945 94.2734 30.5391 94.5781 31.1953L100.977 44.625H102.102L108.5 31.1953C108.805 30.5391 109.145 29.8945 109.52 29.2617C109.895 28.6055 110.316 28.0195 110.785 27.5039C111.254 26.9883 111.77 26.5781 112.332 26.2734C112.918 25.9453 113.562 25.7812 114.266 25.7812C114.758 25.7812 115.238 25.8516 115.707 25.9922C116.176 26.1328 116.68 26.3438 117.219 26.625C118.133 27.1875 118.777 27.7969 119.152 28.4531C119.551 29.0859 119.75 29.7188 119.75 30.3516C119.75 30.7734 119.562 31.4648 119.188 32.4258C118.812 33.3633 118.203 34.5938 117.359 36.1172L106.812 54.8203V67.0547ZM132.828 53.7656H144.008L138.805 34.9219H138.031L132.828 53.7656ZM154.906 57.2109C154.953 58.8047 155.012 60.4336 155.082 62.0977C155.152 63.7617 155.188 65.3672 155.188 66.9141V67.9688C155.188 68.8594 155.152 69.7266 155.082 70.5703C155.035 71.3906 154.859 72.1406 154.555 72.8203C154.25 73.4766 153.77 74.0039 153.113 74.4023C152.457 74.8008 151.531 75 150.336 75C149.117 75 148.18 74.8008 147.523 74.4023C146.867 74.0039 146.375 73.4766 146.047 72.8203C145.742 72.1641 145.555 71.4141 145.484 70.5703C145.438 69.7266 145.414 68.8594 145.414 67.9688V63.0469H131.352V67.9688C131.352 68.8594 131.316 69.7266 131.246 70.5703C131.199 71.4141 131.012 72.1641 130.684 72.8203C130.379 73.4766 129.898 74.0039 129.242 74.4023C128.586 74.8008 127.648 75 126.43 75C125.211 75 124.273 74.8008 123.617 74.4023C122.961 74.0039 122.48 73.4766 122.176 72.8203C121.871 72.1406 121.695 71.3906 121.648 70.5703C121.602 69.7266 121.578 68.8594 121.578 67.9688V66.9141C121.578 66.1875 121.578 65.4141 121.578 64.5938C121.602 63.7734 121.625 62.9414 121.648 62.0977C121.672 61.2539 121.695 60.4219 121.719 59.6016C121.742 58.7578 121.766 57.9609 121.789 57.2109C122.961 53.1328 124.191 49.0078 125.48 44.8359C126.77 40.6406 128 36.4922 129.172 32.3906C129.406 31.5234 129.688 30.6914 130.016 29.8945C130.344 29.0742 130.777 28.3711 131.316 27.7852C131.855 27.1758 132.547 26.6953 133.391 26.3438C134.234 25.9687 135.312 25.7812 136.625 25.7812H140.141C141.43 25.7812 142.496 25.9687 143.34 26.3438C144.207 26.6953 144.91 27.1758 145.449 27.7852C145.988 28.3711 146.41 29.0742 146.715 29.8945C147.043 30.6914 147.336 31.5234 147.594 32.3906L154.906 57.2109ZM173.469 55.5938V66.9844C173.469 67.9922 173.434 68.9766 173.363 69.9375C173.316 70.8984 173.117 71.7539 172.766 72.5039C172.438 73.2539 171.91 73.8633 171.184 74.332C170.457 74.7773 169.414 75 168.055 75C166.742 75 165.723 74.7773 164.996 74.332C164.293 73.8633 163.777 73.2539 163.449 72.5039C163.121 71.7539 162.922 70.8984 162.852 69.9375C162.805 68.9766 162.781 67.9922 162.781 66.9844V33.7969C162.781 32.7891 162.805 31.8047 162.852 30.8438C162.922 29.8828 163.121 29.0273 163.449 28.2773C163.777 27.5273 164.293 26.9297 164.996 26.4844C165.723 26.0156 166.742 25.7812 168.055 25.7812H179.656C182.562 25.9219 185.164 26.5312 187.461 27.6094C188.445 28.0781 189.395 28.6641 190.309 29.3672C191.246 30.0703 192.078 30.9375 192.805 31.9688C193.555 32.9766 194.152 34.1836 194.598 35.5898C195.043 36.9727 195.266 38.5781 195.266 40.4062C195.266 42.9141 194.867 45.1172 194.07 47.0156C193.297 48.8906 192.16 50.4727 190.66 51.7617C189.184 53.0273 187.367 53.9883 185.211 54.6445C183.078 55.2773 180.664 55.5938 177.969 55.5938H173.469ZM178.25 47.2266C179.422 47.1562 180.477 46.875 181.414 46.3828C181.812 46.1719 182.199 45.9023 182.574 45.5742C182.949 45.2461 183.289 44.8477 183.594 44.3789C183.898 43.8867 184.133 43.3125 184.297 42.6562C184.484 42 184.578 41.25 184.578 40.4062C184.578 39.6094 184.484 38.918 184.297 38.332C184.133 37.7227 183.91 37.207 183.629 36.7852C183.348 36.3398 183.031 35.9648 182.68 35.6602C182.328 35.3555 181.965 35.0977 181.59 34.8867C180.699 34.4414 179.703 34.1719 178.602 34.0781H173.469V47.2266H178.25Z" fill="#175676"/>
</svg>
